<svg width="12" height="12" viewBox="0 0 12 12" fill="none" xmlns="http://www.w3.org/2000/svg">
<g clip-path="url(#clip0_207_233)">
<path d="M5.25 10C5.25 10.1989 5.32902 10.3897 5.46967 10.5303C5.61032 10.671 5.80109 10.75 6 10.75C6.19891 10.75 6.38968 10.671 6.53033 10.5303C6.67098 10.3897 6.75 10.1989 6.75 10V6.75H10C10.1989 6.75 10.3897 6.67098 10.5303 6.53033C10.671 6.38968 10.75 6.19891 10.75 6C10.75 5.80109 10.671 5.61032 10.5303 5.46967C10.3897 5.32902 10.1989 5.25 10 5.25H6.75V2C6.75 1.80109 6.67098 1.61032 6.53033 1.46967C6.38968 1.32902 6.19891 1.25 6 1.25C5.80109 1.25 5.61032 1.32902 5.46967 1.46967C5.32902 1.61032 5.25 1.80109 5.25 2V5.25H2C1.80109 5.25 1.61032 5.32902 1.46967 5.46967C1.32902 5.61032 1.25 5.80109 1.25 6C1.25 6.19891 1.32902 6.38968 1.46967 6.53033C1.61032 6.67098 1.80109 6.75 2 6.75H5.25V10Z" fill="#19191A"/>
</g>
<defs>
<clipPath id="clip0_207_233">
<rect width="12" height="12" fill="white"/>
</clipPath>
</defs>
</svg>
