<svg width="18" height="18" viewBox="0 0 18 18" fill="none" xmlns="http://www.w3.org/2000/svg">
<g clip-path="url(#clip0_207_103)">
<g filter="url(#filter0_dd_207_103)">
<path d="M5.25 5.25H4.5C4.10218 5.25 3.72064 5.40804 3.43934 5.68934C3.15804 5.97064 3 6.35218 3 6.75V13.5C3 13.8978 3.15804 14.2794 3.43934 14.5607C3.72064 14.842 4.10218 15 4.5 15H11.25C11.6478 15 12.0294 14.842 12.3107 14.5607C12.592 14.2794 12.75 13.8978 12.75 13.5V12.75" stroke="#FBB875" stroke-linecap="round" stroke-linejoin="round"/>
<path d="M12 3.75L14.25 6M15.2888 4.93875C15.5841 4.64337 15.7501 4.24274 15.7501 3.825C15.7501 3.40727 15.5841 3.00664 15.2888 2.71125C14.9934 2.41587 14.5927 2.24992 14.175 2.24992C13.7573 2.24992 13.3566 2.41587 13.0613 2.71125L6.75 9V11.25H9L15.2888 4.93875Z" stroke="#FBB875" stroke-linecap="round" stroke-linejoin="round"/>
</g>
</g>
<defs>
<filter id="filter0_dd_207_103" x="-1.5" y="1.74992" width="21.7501" height="21.7501" filterUnits="userSpaceOnUse" color-interpolation-filters="sRGB">
<feFlood flood-opacity="0" result="BackgroundImageFix"/>
<feColorMatrix in="SourceAlpha" type="matrix" values="0 0 0 0 0 0 0 0 0 0 0 0 0 0 0 0 0 0 127 0" result="hardAlpha"/>
<feOffset dy="4"/>
<feGaussianBlur stdDeviation="2"/>
<feComposite in2="hardAlpha" operator="out"/>
<feColorMatrix type="matrix" values="0 0 0 0 0 0 0 0 0 0 0 0 0 0 0 0 0 0 0.25 0"/>
<feBlend mode="normal" in2="BackgroundImageFix" result="effect1_dropShadow_207_103"/>
<feColorMatrix in="SourceAlpha" type="matrix" values="0 0 0 0 0 0 0 0 0 0 0 0 0 0 0 0 0 0 127 0" result="hardAlpha"/>
<feOffset dy="4"/>
<feGaussianBlur stdDeviation="2"/>
<feComposite in2="hardAlpha" operator="out"/>
<feColorMatrix type="matrix" values="0 0 0 0 0 0 0 0 0 0 0 0 0 0 0 0 0 0 0.25 0"/>
<feBlend mode="normal" in2="effect1_dropShadow_207_103" result="effect2_dropShadow_207_103"/>
<feBlend mode="normal" in="SourceGraphic" in2="effect2_dropShadow_207_103" result="shape"/>
</filter>
<clipPath id="clip0_207_103">
<rect width="18" height="18" fill="white"/>
</clipPath>
</defs>
</svg>
